<svg width="36" height="36" viewBox="0 0 36 36" fill="none" xmlns="http://www.w3.org/2000/svg">
<circle cx="18" cy="18" r="18" fill="white"/>
<path fill-rule="evenodd" clip-rule="evenodd" d="M18 10C15.79 10 14 11.79 14 14C14 16.21 15.79 18 18 18C20.21 18 22 16.21 22 14C22 11.79 20.21 10 18 10ZM20 14C20 12.9 19.1 12 18 12C16.9 12 16 12.9 16 14C16 15.1 16.9 16 18 16C19.1 16 20 15.1 20 14ZM24 23C23.8 22.29 20.7 21 18 21C15.3 21 12.2 22.29 12 23.01V24H24V23ZM10 23C10 20.34 15.33 19 18 19C20.67 19 26 20.34 26 23V26H10V23Z" fill="#333333"/>
</svg>
